/* XPM */
static char *freeimage[] = {
/* width height num_colors chars_per_pixel */
"48 48 31 1",
/* colors */
"  c #ffffff",
". c #e2eff7",
"X c #a8cfe9",
"o c #8bbfe1",
"O c #51a0d3",
"+ c #2688c8",
"@ c #1881c5",
"# c #7db8de",
"$ c #f0f7fb",
"% c #99c7e5",
"& c #4398cf",
"* c #3490cc",
"= c #6eb0da",
"- c #3591cc",
"; c #c5dff0",
": c #6fb0db",
"> c #60a8d7",
", c #b6d7ec",
"< c #d3e7f4",
"1 c #2689c9",
"2 c #52a1d4",
"3 c #a8d0e9",
"4 c #8cc0e2",
"5 c #4399d0",
"6 c #b7d8ed",
"7 c #d4e7f4",
"8 c #c5e0f1",
"9 c #e2eff8",
"0 c #f1f7fb",
"q c #9ac8e6",
"w c #b6d8ed",
/* pixels */
"                 .XoOO+@@+OO#X.                 ",
"              $%&@@@@@@@@@@@@@@*#.              ",
"            $=@@@@@@@@@@@@@@@@@@@-=;            ",
"           %+@@@@@@@@@@@@@@@@@@@@:@@#$          ",
"         $O@@@@@@@@@@@@@@@@@@@@@>-@@:+,         ",
"        <+@@@@@@@@@@@@@@@@@@@@@1#@@2-@@%        ",
"       <+@@@@@@@@@@@@@@@@@@@@@@31@@4@@@@=       ",
"      <+@@@@@@@@@@@@@@@@@@@@@@#>@@2>@@@@@X      ",
"     $*@@@@@@@@@@@@@@@@@@@@@@56@@@3@@@@@@@;     ",
"     >@@@@@@@@@@@@@@@@@@@@@@171@@>:@@@@@@@+$    ",
"    ,@@@@@@@@@@@@@@@@@@@@@@@8>@@@71@@@@@@@@#    ",
"    *@@@@@@@@@@@@@@@@@@@@@@36@@@#4@@@@@@@@@@.   ",
"   X@@@@@@@@@@@@@@@@@@@@@@#91@@191@@@@@@@@@@=   ",
"   *@@@@@@@@@@@@@@@@@@@@@: 2@@@64@@@@@@@@@@@@.  ",
"  ,@@@@@@@@@@@@@@@@@@@@@: 4@@@201@@@@@@@@@@@@%  ",
"  =@@@@@@@@@@@@@@@@@@@@5 6@@@194@@@@@@@@@@@@@&  ",
"  +@@@@@@@@@@@@@@@@@@@5071@@@q01@@@@@@@@@@@@@@$ ",
" ;@@@@@@@@@@@@@@@@@@@:005@@@2 #@@@@@@@@@@@@@@@, ",
" o@@@@@@@@@@@@@@@@@@:  5@@@109@@@@@@@@@@@@@@@@o ",
" =@@@@@@@@@@@@@@@@@:  :@@@@6 >@@@@@@@@@@@@@@@@> ",
" O@@@@@@@@@@@@@@@@3  :@@@@# 8@@@@@@@@@@@@@@@@@O ",
" +@@@@@@@@@@@@@@18  q@@@@5  -@@@@@@@@@@@@@@@@@* ",
" @@@@@@@@@@@@@@59  3@@@@19 4@@@@@@@@@@@@@@@@@@@ ",
" @@@@@@@@@@@@@#   3@@@@@8 91@@@@@@@@@@@@@@@@@@@ ",
" @@@@@@@@@@@16   4@@@@@3  2@@@@@@@@@@@@@@@@@@@@ ",
" @@@@@@@@@@>0   :@@@@@:  6@@@@@@@@@@@@@@@@@@@@@ ",
" @@@@@@@@-6    :@@@@@>  01@@@@@@@@@@@@@@@@@@@@O ",
" O@@@@@140   05@@@@@50  2@@@@@@@@@@@@@@@@@@@@@O ",
" O@@@@:9    7-@@@@@50  q@@@@@@@@@@@@@@@@@@@@@@# ",
" o@@:9     31@@@@@10  71@@@@@@@@@@@@@@@@@@@@@@% ",
" ,49     0:@@@@@@17  05@@@@@@@@@@@@@@@@@@@@@@@< ",
"        8-@@@@@@17   :@@@@@@@@@@@@@@@@@@@@@@@+  ",
"      0#@@@@@@@-7   3@@@@@@@@@@@@@@@@@@@@@@@@=  ",
"     6-@@@@@@@50   7@@@@@@@@@@@@@@@@@@@@@@@@@;  ",
"   92@@@@@@@@50   01@@@@@@@@@@@@@@@@@@@@@@@@*   ",
"   >@@@@@@@@:0   05@@@@@@@@@@@@@@@@@@@@@@@@@X   ",
"   ;@@@@@@@4     >@@@@@@@@@@@@@@@@@@@@@@@@@*    ",
"    =@@@@13     :@@@@@@@@@@@@@@@@@@@@@@@@@@;    ",
"    $+@@57     q@@@@@@@@@@@@@@@@@@@@@@@@@@=     ",
"     ,@#0     3@@@@@@@@@@@@@@@@@@@@@@@@@@&$     ",
"      .      3@@@@@@@@@@@@@@@@@@@@@@@@@@+<      ",
"            3@@@@@@@@@@@@@@@@@@@@@@@@@@+<       ",
"           3@@@@@@@@@@@@@@@@@@@@@@@@@@+<        ",
"          w@@@@@@@@@@@@@@@@@@@@@@@@@@O$         ",
"          .O@@@@@@@@@@@@@@@@@@@@@@@+%           ",
"            ;O@@@@@@@@@@@@@@@@@@@@=.            ",
"              ;=+@@@@@@@@@@@@@@*%$              ",
"                 <%=O+@@@@*O#X.                 "
};
